<svg version="1.1" xmlns="http://www.w3.org/2000/svg" width="439" height="512" viewBox="0 0 439 512"><title>chevron-circle-up</title><path d="M332.857 325.428l29.143-29.143c7.143-7.143 7.143-18.572 0-25.714l-129.714-129.714c-7.143-7.143-18.572-7.143-25.714 0l-129.714 129.714c-7.143 7.143-7.143 18.572 0 25.714l29.143 29.143c7.143 7.143 18.572 7.143 25.715 0l87.714-87.714 87.714 87.714c7.143 7.143 18.572 7.143 25.714 0zM438.857 256c0 121.143-98.286 219.428-219.429 219.428s-219.429-98.286-219.429-219.429 98.285-219.429 219.429-219.429 219.429 98.286 219.429 219.429z"></path></svg>