<svg version="1.1" xmlns="http://www.w3.org/2000/svg" width="402" height="512" viewBox="0 0 402 512"><title>plus</title><path d="M402.286 210.286v54.857c0 15.143-12.286 27.428-27.428 27.428h-118.857v118.857c0 15.143-12.286 27.428-27.428 27.428h-54.857c-15.143 0-27.429-12.286-27.429-27.428v-118.857h-118.857c-15.143 0-27.428-12.286-27.428-27.428v-54.857c0-15.143 12.286-27.429 27.428-27.429h118.857v-118.857c0-15.143 12.286-27.428 27.428-27.428h54.857c15.143 0 27.429 12.285 27.429 27.428v118.857h118.857c15.143 0 27.428 12.286 27.428 27.428z"></path></svg>