<svg version="1.1" xmlns="http://www.w3.org/2000/svg" width="520" height="512" viewBox="0 0 520 512"><title>sort-amount-asc</title><path d="M210.286 411.428c0 2.572-1.143 4.857-2.857 6.857l-91.143 91.143c-2 1.714-4.285 2.572-6.572 2.572s-4.572-0.857-6.572-2.572l-91.428-91.428c-2.572-2.857-3.428-6.572-2-10s4.857-5.714 8.572-5.714h54.857v-393.143c0-5.143 4-9.143 9.143-9.143h54.857c5.143 0 9.143 4 9.143 9.143v393.143h54.857c5.143 0 9.143 4 9.143 9.143zM512 448v54.857c0 5.143-4 9.143-9.143 9.143h-237.714c-5.143 0-9.143-4-9.143-9.143v-54.857c0-5.143 4-9.143 9.143-9.143h237.714c5.143 0 9.143 4 9.143 9.143zM457.143 301.714v54.857c0 5.143-4 9.143-9.143 9.143h-182.857c-5.143 0-9.143-4-9.143-9.143v-54.857c0-5.143 4-9.143 9.143-9.143h182.857c5.143 0 9.143 4 9.143 9.143zM402.286 155.429v54.857c0 5.143-4 9.143-9.143 9.143h-128c-5.143 0-9.143-4-9.143-9.143v-54.857c0-5.143 4-9.143 9.143-9.143h128c5.143 0 9.143 4 9.143 9.143zM347.428 9.143v54.857c0 5.143-4 9.143-9.143 9.143h-73.143c-5.143 0-9.143-4-9.143-9.143v-54.857c0-5.143 4-9.143 9.143-9.143h73.143c5.143 0 9.143 4 9.143 9.143z"></path></svg>